<svg width="732" height="38" viewBox="0 0 732 38" fill="none" xmlns="http://www.w3.org/2000/svg">
<path d="M557.133 17.5117C557.133 17.207 557.105 16.9297 557.051 16.6797C556.996 16.4297 556.879 16.1992 556.699 15.9883C556.527 15.7773 556.273 15.5664 555.938 15.3555C555.609 15.1445 555.18 14.9258 554.648 14.6992C554.016 14.4336 553.402 14.1523 552.809 13.8555C552.215 13.5508 551.68 13.1992 551.203 12.8008C550.727 12.4023 550.348 11.9336 550.066 11.3945C549.793 10.8477 549.656 10.207 549.656 9.47266C549.656 8.75391 549.785 8.10156 550.043 7.51562C550.309 6.92969 550.684 6.42969 551.168 6.01562C551.652 5.59375 552.219 5.26953 552.867 5.04297C553.523 4.81641 554.254 4.70312 555.059 4.70312C556.152 4.70312 557.098 4.92969 557.895 5.38281C558.699 5.83594 559.32 6.45703 559.758 7.24609C560.203 8.03516 560.426 8.94141 560.426 9.96484H557.004C557.004 9.48047 556.934 9.05469 556.793 8.6875C556.66 8.3125 556.445 8.01953 556.148 7.80859C555.852 7.59766 555.469 7.49219 555 7.49219C554.562 7.49219 554.199 7.58203 553.91 7.76172C553.629 7.93359 553.418 8.17188 553.277 8.47656C553.145 8.77344 553.078 9.10938 553.078 9.48438C553.078 9.76562 553.145 10.0195 553.277 10.2461C553.418 10.4648 553.609 10.6641 553.852 10.8438C554.094 11.0156 554.379 11.1836 554.707 11.3477C555.043 11.5117 555.41 11.6719 555.809 11.8281C556.582 12.1328 557.266 12.4688 557.859 12.8359C558.453 13.1953 558.949 13.6016 559.348 14.0547C559.746 14.5 560.047 15.0039 560.25 15.5664C560.453 16.1289 560.555 16.7695 560.555 17.4883C560.555 18.1992 560.43 18.8477 560.18 19.4336C559.938 20.0117 559.582 20.5117 559.113 20.9336C558.645 21.3477 558.078 21.668 557.414 21.8945C556.758 22.1211 556.023 22.2344 555.211 22.2344C554.422 22.2344 553.676 22.125 552.973 21.9062C552.27 21.6797 551.648 21.3398 551.109 20.8867C550.578 20.4258 550.16 19.8438 549.855 19.1406C549.551 18.4297 549.398 17.5898 549.398 16.6211H552.832C552.832 17.1367 552.883 17.5781 552.984 17.9453C553.086 18.3047 553.242 18.5938 553.453 18.8125C553.664 19.0234 553.922 19.1836 554.227 19.293C554.539 19.3945 554.895 19.4453 555.293 19.4453C555.746 19.4453 556.105 19.3594 556.371 19.1875C556.645 19.0156 556.84 18.7852 556.957 18.4961C557.074 18.207 557.133 17.8789 557.133 17.5117ZM574.863 12.1445V14.9922C574.863 16.1953 574.715 17.25 574.418 18.1562C574.129 19.0547 573.715 19.8086 573.176 20.418C572.645 21.0195 572 21.4727 571.242 21.7773C570.492 22.082 569.66 22.2344 568.746 22.2344C567.832 22.2344 566.996 22.082 566.238 21.7773C565.488 21.4727 564.84 21.0195 564.293 20.418C563.754 19.8086 563.336 19.0547 563.039 18.1562C562.742 17.25 562.594 16.1953 562.594 14.9922V12.1445C562.594 10.9102 562.738 9.83203 563.027 8.91016C563.316 7.98047 563.734 7.20703 564.281 6.58984C564.828 5.96484 565.477 5.49609 566.227 5.18359C566.977 4.86328 567.809 4.70312 568.723 4.70312C569.637 4.70312 570.469 4.86328 571.219 5.18359C571.969 5.49609 572.617 5.96484 573.164 6.58984C573.711 7.20703 574.129 7.98047 574.418 8.91016C574.715 9.83203 574.863 10.9102 574.863 12.1445ZM571.453 14.9922V12.1211C571.453 11.3086 571.395 10.6172 571.277 10.0469C571.16 9.46875 570.984 8.99609 570.75 8.62891C570.516 8.26172 570.23 7.99219 569.895 7.82031C569.559 7.64844 569.168 7.5625 568.723 7.5625C568.277 7.5625 567.883 7.64844 567.539 7.82031C567.203 7.99219 566.918 8.26172 566.684 8.62891C566.457 8.99609 566.285 9.46875 566.168 10.0469C566.059 10.6172 566.004 11.3086 566.004 12.1211V14.9922C566.004 15.7734 566.062 16.4414 566.18 16.9961C566.297 17.5508 566.473 18.0039 566.707 18.3555C566.941 18.707 567.227 18.9688 567.562 19.1406C567.906 19.3047 568.301 19.3867 568.746 19.3867C569.184 19.3867 569.57 19.3047 569.906 19.1406C570.25 18.9688 570.535 18.707 570.762 18.3555C570.988 18.0039 571.16 17.5508 571.277 16.9961C571.395 16.4414 571.453 15.7734 571.453 14.9922ZM583.125 14.5586H579.621L579.609 12.0742H582.586C583.055 12.0742 583.438 11.9961 583.734 11.8398C584.039 11.6758 584.262 11.4375 584.402 11.125C584.551 10.8047 584.625 10.418 584.625 9.96484C584.625 9.44141 584.555 9.02344 584.414 8.71094C584.281 8.39062 584.066 8.15625 583.77 8.00781C583.48 7.85937 583.098 7.78516 582.621 7.78516H580.793V22H577.359V4.9375H582.621C583.465 4.9375 584.223 5.03125 584.895 5.21875C585.566 5.40625 586.137 5.69531 586.605 6.08594C587.074 6.46875 587.434 6.95312 587.684 7.53906C587.934 8.11719 588.059 8.80469 588.059 9.60156C588.059 10.3047 587.918 10.9531 587.637 11.5469C587.355 12.1406 586.914 12.6289 586.312 13.0117C585.711 13.3867 584.934 13.5938 583.98 13.6328L583.125 14.5586ZM582.996 22H578.648L580.02 19.1641H582.996C583.457 19.1641 583.824 19.0664 584.098 18.8711C584.371 18.6758 584.57 18.4141 584.695 18.0859C584.828 17.75 584.895 17.3672 584.895 16.9375C584.895 16.4531 584.836 16.0312 584.719 15.6719C584.609 15.3125 584.426 15.0391 584.168 14.8516C583.91 14.6562 583.562 14.5586 583.125 14.5586H580.172L580.195 12.0742H583.781L584.59 13.0586C585.504 13.0273 586.234 13.2031 586.781 13.5859C587.328 13.9609 587.719 14.4531 587.953 15.0625C588.195 15.6641 588.316 16.3047 588.316 16.9844C588.316 18.0781 588.109 19 587.695 19.75C587.289 20.4922 586.691 21.0547 585.902 21.4375C585.113 21.8125 584.145 22 582.996 22ZM590.848 4.9375H596.32C597.461 4.9375 598.434 5.13281 599.238 5.52344C600.043 5.91406 600.66 6.49219 601.09 7.25781C601.52 8.02344 601.734 8.96875 601.734 10.0938C601.734 11.0156 601.609 11.8047 601.359 12.4609C601.109 13.1094 600.754 13.6523 600.293 14.0898C599.832 14.5195 599.281 14.8633 598.641 15.1211L597.598 15.7422H593.156L593.145 12.8945H596.227C596.695 12.8945 597.082 12.793 597.387 12.5898C597.699 12.3789 597.93 12.0859 598.078 11.7109C598.234 11.3281 598.312 10.8828 598.312 10.375C598.312 9.83594 598.242 9.375 598.102 8.99219C597.969 8.60156 597.754 8.30469 597.457 8.10156C597.168 7.89062 596.789 7.78516 596.32 7.78516H594.281V22H590.848V4.9375ZM598.594 22L595.465 14.3945L599.062 14.3828L602.262 21.8359V22H598.594ZM613.91 19.1641V22H606.492V19.1641H613.91ZM607.559 4.9375V22H604.125V4.9375H607.559ZM612.914 11.8516V14.6055H606.492V11.8516H612.914ZM613.887 4.9375V7.78516H606.492V4.9375H613.887ZM633.375 4.9375V22H630.059L624.703 11.3242V22H621.445V4.9375H624.715L630.117 15.7305V4.9375H633.375ZM648.129 12.1445V14.9922C648.129 16.1953 647.98 17.25 647.684 18.1562C647.395 19.0547 646.98 19.8086 646.441 20.418C645.91 21.0195 645.266 21.4727 644.508 21.7773C643.758 22.082 642.926 22.2344 642.012 22.2344C641.098 22.2344 640.262 22.082 639.504 21.7773C638.754 21.4727 638.105 21.0195 637.559 20.418C637.02 19.8086 636.602 19.0547 636.305 18.1562C636.008 17.25 635.859 16.1953 635.859 14.9922V12.1445C635.859 10.9102 636.004 9.83203 636.293 8.91016C636.582 7.98047 637 7.20703 637.547 6.58984C638.094 5.96484 638.742 5.49609 639.492 5.18359C640.242 4.86328 641.074 4.70312 641.988 4.70312C642.902 4.70312 643.734 4.86328 644.484 5.18359C645.234 5.49609 645.883 5.96484 646.43 6.58984C646.977 7.20703 647.395 7.98047 647.684 8.91016C647.98 9.83203 648.129 10.9102 648.129 12.1445ZM644.719 14.9922V12.1211C644.719 11.3086 644.66 10.6172 644.543 10.0469C644.426 9.46875 644.25 8.99609 644.016 8.62891C643.781 8.26172 643.496 7.99219 643.16 7.82031C642.824 7.64844 642.434 7.5625 641.988 7.5625C641.543 7.5625 641.148 7.64844 640.805 7.82031C640.469 7.99219 640.184 8.26172 639.949 8.62891C639.723 8.99609 639.551 9.46875 639.434 10.0469C639.324 10.6172 639.27 11.3086 639.27 12.1211V14.9922C639.27 15.7734 639.328 16.4414 639.445 16.9961C639.562 17.5508 639.738 18.0039 639.973 18.3555C640.207 18.707 640.492 18.9688 640.828 19.1406C641.172 19.3047 641.566 19.3867 642.012 19.3867C642.449 19.3867 642.836 19.3047 643.172 19.1406C643.516 18.9688 643.801 18.707 644.027 18.3555C644.254 18.0039 644.426 17.5508 644.543 16.9961C644.66 16.4414 644.719 15.7734 644.719 14.9922ZM657.844 17.5117C657.844 17.207 657.816 16.9297 657.762 16.6797C657.707 16.4297 657.59 16.1992 657.41 15.9883C657.238 15.7773 656.984 15.5664 656.648 15.3555C656.32 15.1445 655.891 14.9258 655.359 14.6992C654.727 14.4336 654.113 14.1523 653.52 13.8555C652.926 13.5508 652.391 13.1992 651.914 12.8008C651.438 12.4023 651.059 11.9336 650.777 11.3945C650.504 10.8477 650.367 10.207 650.367 9.47266C650.367 8.75391 650.496 8.10156 650.754 7.51562C651.02 6.92969 651.395 6.42969 651.879 6.01562C652.363 5.59375 652.93 5.26953 653.578 5.04297C654.234 4.81641 654.965 4.70312 655.77 4.70312C656.863 4.70312 657.809 4.92969 658.605 5.38281C659.41 5.83594 660.031 6.45703 660.469 7.24609C660.914 8.03516 661.137 8.94141 661.137 9.96484H657.715C657.715 9.48047 657.645 9.05469 657.504 8.6875C657.371 8.3125 657.156 8.01953 656.859 7.80859C656.562 7.59766 656.18 7.49219 655.711 7.49219C655.273 7.49219 654.91 7.58203 654.621 7.76172C654.34 7.93359 654.129 8.17188 653.988 8.47656C653.855 8.77344 653.789 9.10938 653.789 9.48438C653.789 9.76562 653.855 10.0195 653.988 10.2461C654.129 10.4648 654.32 10.6641 654.562 10.8438C654.805 11.0156 655.09 11.1836 655.418 11.3477C655.754 11.5117 656.121 11.6719 656.52 11.8281C657.293 12.1328 657.977 12.4688 658.57 12.8359C659.164 13.1953 659.66 13.6016 660.059 14.0547C660.457 14.5 660.758 15.0039 660.961 15.5664C661.164 16.1289 661.266 16.7695 661.266 17.4883C661.266 18.1992 661.141 18.8477 660.891 19.4336C660.648 20.0117 660.293 20.5117 659.824 20.9336C659.355 21.3477 658.789 21.668 658.125 21.8945C657.469 22.1211 656.734 22.2344 655.922 22.2344C655.133 22.2344 654.387 22.125 653.684 21.9062C652.98 21.6797 652.359 21.3398 651.82 20.8867C651.289 20.4258 650.871 19.8438 650.566 19.1406C650.262 18.4297 650.109 17.5898 650.109 16.6211H653.543C653.543 17.1367 653.594 17.5781 653.695 17.9453C653.797 18.3047 653.953 18.5938 654.164 18.8125C654.375 19.0234 654.633 19.1836 654.938 19.293C655.25 19.3945 655.605 19.4453 656.004 19.4453C656.457 19.4453 656.816 19.3594 657.082 19.1875C657.355 19.0156 657.551 18.7852 657.668 18.4961C657.785 18.207 657.844 17.8789 657.844 17.5117ZM675.574 12.1445V14.9922C675.574 16.1953 675.426 17.25 675.129 18.1562C674.84 19.0547 674.426 19.8086 673.887 20.418C673.355 21.0195 672.711 21.4727 671.953 21.7773C671.203 22.082 670.371 22.2344 669.457 22.2344C668.543 22.2344 667.707 22.082 666.949 21.7773C666.199 21.4727 665.551 21.0195 665.004 20.418C664.465 19.8086 664.047 19.0547 663.75 18.1562C663.453 17.25 663.305 16.1953 663.305 14.9922V12.1445C663.305 10.9102 663.449 9.83203 663.738 8.91016C664.027 7.98047 664.445 7.20703 664.992 6.58984C665.539 5.96484 666.188 5.49609 666.938 5.18359C667.688 4.86328 668.52 4.70312 669.434 4.70312C670.348 4.70312 671.18 4.86328 671.93 5.18359C672.68 5.49609 673.328 5.96484 673.875 6.58984C674.422 7.20703 674.84 7.98047 675.129 8.91016C675.426 9.83203 675.574 10.9102 675.574 12.1445ZM672.164 14.9922V12.1211C672.164 11.3086 672.105 10.6172 671.988 10.0469C671.871 9.46875 671.695 8.99609 671.461 8.62891C671.227 8.26172 670.941 7.99219 670.605 7.82031C670.27 7.64844 669.879 7.5625 669.434 7.5625C668.988 7.5625 668.594 7.64844 668.25 7.82031C667.914 7.99219 667.629 8.26172 667.395 8.62891C667.168 8.99609 666.996 9.46875 666.879 10.0469C666.77 10.6172 666.715 11.3086 666.715 12.1211V14.9922C666.715 15.7734 666.773 16.4414 666.891 16.9961C667.008 17.5508 667.184 18.0039 667.418 18.3555C667.652 18.707 667.938 18.9688 668.273 19.1406C668.617 19.3047 669.012 19.3867 669.457 19.3867C669.895 19.3867 670.281 19.3047 670.617 19.1406C670.961 18.9688 671.246 18.707 671.473 18.3555C671.699 18.0039 671.871 17.5508 671.988 16.9961C672.105 16.4414 672.164 15.7734 672.164 14.9922ZM683.883 4.9375V22H680.473V4.9375H683.883ZM688.125 4.9375V7.78516H676.312V4.9375H688.125ZM690.129 4.9375H695.602C696.742 4.9375 697.715 5.13281 698.52 5.52344C699.324 5.91406 699.941 6.49219 700.371 7.25781C700.801 8.02344 701.016 8.96875 701.016 10.0938C701.016 11.0156 700.891 11.8047 700.641 12.4609C700.391 13.1094 700.035 13.6523 699.574 14.0898C699.113 14.5195 698.562 14.8633 697.922 15.1211L696.879 15.7422H692.438L692.426 12.8945H695.508C695.977 12.8945 696.363 12.793 696.668 12.5898C696.98 12.3789 697.211 12.0859 697.359 11.7109C697.516 11.3281 697.594 10.8828 697.594 10.375C697.594 9.83594 697.523 9.375 697.383 8.99219C697.25 8.60156 697.035 8.30469 696.738 8.10156C696.449 7.89062 696.07 7.78516 695.602 7.78516H693.562V22H690.129V4.9375ZM697.875 22L694.746 14.3945L698.344 14.3828L701.543 21.8359V22H697.875ZM715.395 12.1445V14.9922C715.395 16.1953 715.246 17.25 714.949 18.1562C714.66 19.0547 714.246 19.8086 713.707 20.418C713.176 21.0195 712.531 21.4727 711.773 21.7773C711.023 22.082 710.191 22.2344 709.277 22.2344C708.363 22.2344 707.527 22.082 706.77 21.7773C706.02 21.4727 705.371 21.0195 704.824 20.418C704.285 19.8086 703.867 19.0547 703.57 18.1562C703.273 17.25 703.125 16.1953 703.125 14.9922V12.1445C703.125 10.9102 703.27 9.83203 703.559 8.91016C703.848 7.98047 704.266 7.20703 704.812 6.58984C705.359 5.96484 706.008 5.49609 706.758 5.18359C707.508 4.86328 708.34 4.70312 709.254 4.70312C710.168 4.70312 711 4.86328 711.75 5.18359C712.5 5.49609 713.148 5.96484 713.695 6.58984C714.242 7.20703 714.66 7.98047 714.949 8.91016C715.246 9.83203 715.395 10.9102 715.395 12.1445ZM711.984 14.9922V12.1211C711.984 11.3086 711.926 10.6172 711.809 10.0469C711.691 9.46875 711.516 8.99609 711.281 8.62891C711.047 8.26172 710.762 7.99219 710.426 7.82031C710.09 7.64844 709.699 7.5625 709.254 7.5625C708.809 7.5625 708.414 7.64844 708.07 7.82031C707.734 7.99219 707.449 8.26172 707.215 8.62891C706.988 8.99609 706.816 9.46875 706.699 10.0469C706.59 10.6172 706.535 11.3086 706.535 12.1211V14.9922C706.535 15.7734 706.594 16.4414 706.711 16.9961C706.828 17.5508 707.004 18.0039 707.238 18.3555C707.473 18.707 707.758 18.9688 708.094 19.1406C708.438 19.3047 708.832 19.3867 709.277 19.3867C709.715 19.3867 710.102 19.3047 710.438 19.1406C710.781 18.9688 711.066 18.707 711.293 18.3555C711.52 18.0039 711.691 17.5508 711.809 16.9961C711.926 16.4414 711.984 15.7734 711.984 14.9922ZM725.109 17.5117C725.109 17.207 725.082 16.9297 725.027 16.6797C724.973 16.4297 724.855 16.1992 724.676 15.9883C724.504 15.7773 724.25 15.5664 723.914 15.3555C723.586 15.1445 723.156 14.9258 722.625 14.6992C721.992 14.4336 721.379 14.1523 720.785 13.8555C720.191 13.5508 719.656 13.1992 719.18 12.8008C718.703 12.4023 718.324 11.9336 718.043 11.3945C717.77 10.8477 717.633 10.207 717.633 9.47266C717.633 8.75391 717.762 8.10156 718.02 7.51562C718.285 6.92969 718.66 6.42969 719.145 6.01562C719.629 5.59375 720.195 5.26953 720.844 5.04297C721.5 4.81641 722.23 4.70312 723.035 4.70312C724.129 4.70312 725.074 4.92969 725.871 5.38281C726.676 5.83594 727.297 6.45703 727.734 7.24609C728.18 8.03516 728.402 8.94141 728.402 9.96484H724.98C724.98 9.48047 724.91 9.05469 724.77 8.6875C724.637 8.3125 724.422 8.01953 724.125 7.80859C723.828 7.59766 723.445 7.49219 722.977 7.49219C722.539 7.49219 722.176 7.58203 721.887 7.76172C721.605 7.93359 721.395 8.17188 721.254 8.47656C721.121 8.77344 721.055 9.10938 721.055 9.48438C721.055 9.76562 721.121 10.0195 721.254 10.2461C721.395 10.4648 721.586 10.6641 721.828 10.8438C722.07 11.0156 722.355 11.1836 722.684 11.3477C723.02 11.5117 723.387 11.6719 723.785 11.8281C724.559 12.1328 725.242 12.4688 725.836 12.8359C726.43 13.1953 726.926 13.6016 727.324 14.0547C727.723 14.5 728.023 15.0039 728.227 15.5664C728.43 16.1289 728.531 16.7695 728.531 17.4883C728.531 18.1992 728.406 18.8477 728.156 19.4336C727.914 20.0117 727.559 20.5117 727.09 20.9336C726.621 21.3477 726.055 21.668 725.391 21.8945C724.734 22.1211 724 22.2344 723.188 22.2344C722.398 22.2344 721.652 22.125 720.949 21.9062C720.246 21.6797 719.625 21.3398 719.086 20.8867C718.555 20.4258 718.137 19.8438 717.832 19.1406C717.527 18.4297 717.375 17.5898 717.375 16.6211H720.809C720.809 17.1367 720.859 17.5781 720.961 17.9453C721.062 18.3047 721.219 18.5938 721.43 18.8125C721.641 19.0234 721.898 19.1836 722.203 19.293C722.516 19.3945 722.871 19.4453 723.27 19.4453C723.723 19.4453 724.082 19.3594 724.348 19.1875C724.621 19.0156 724.816 18.7852 724.934 18.4961C725.051 18.207 725.109 17.8789 725.109 17.5117Z" fill="black"/>
<path d="M375.191 7.98438L371.523 22H367.902L373.234 4.9375H375.496L375.191 7.98438ZM378.086 22L374.395 7.98438L374.055 4.9375H376.352L381.73 22H378.086ZM378.215 15.6367V18.4844H370.516V15.6367H378.215ZM389.172 15.9883H385.68V13.1406H389.172C389.664 13.1406 390.062 13.0312 390.367 12.8125C390.672 12.5938 390.895 12.293 391.035 11.9102C391.176 11.5195 391.246 11.082 391.246 10.5977C391.246 10.1055 391.176 9.64453 391.035 9.21484C390.895 8.78516 390.672 8.44141 390.367 8.18359C390.062 7.91797 389.664 7.78516 389.172 7.78516H386.793V22H383.359V4.9375H389.172C390.32 4.9375 391.305 5.17969 392.125 5.66406C392.953 6.14844 393.59 6.81641 394.035 7.66797C394.48 8.51172 394.703 9.48047 394.703 10.5742C394.703 11.6758 394.48 12.6328 394.035 13.4453C393.59 14.25 392.953 14.875 392.125 15.3203C391.305 15.7656 390.32 15.9883 389.172 15.9883ZM408.988 12.1445V14.9922C408.988 16.1953 408.84 17.25 408.543 18.1562C408.254 19.0547 407.84 19.8086 407.301 20.418C406.77 21.0195 406.125 21.4727 405.367 21.7773C404.617 22.082 403.785 22.2344 402.871 22.2344C401.957 22.2344 401.121 22.082 400.363 21.7773C399.613 21.4727 398.965 21.0195 398.418 20.418C397.879 19.8086 397.461 19.0547 397.164 18.1562C396.867 17.25 396.719 16.1953 396.719 14.9922V12.1445C396.719 10.9102 396.863 9.83203 397.152 8.91016C397.441 7.98047 397.859 7.20703 398.406 6.58984C398.953 5.96484 399.602 5.49609 400.352 5.18359C401.102 4.86328 401.934 4.70312 402.848 4.70312C403.762 4.70312 404.594 4.86328 405.344 5.18359C406.094 5.49609 406.742 5.96484 407.289 6.58984C407.836 7.20703 408.254 7.98047 408.543 8.91016C408.84 9.83203 408.988 10.9102 408.988 12.1445ZM405.578 14.9922V12.1211C405.578 11.3086 405.52 10.6172 405.402 10.0469C405.285 9.46875 405.109 8.99609 404.875 8.62891C404.641 8.26172 404.355 7.99219 404.02 7.82031C403.684 7.64844 403.293 7.5625 402.848 7.5625C402.402 7.5625 402.008 7.64844 401.664 7.82031C401.328 7.99219 401.043 8.26172 400.809 8.62891C400.582 8.99609 400.41 9.46875 400.293 10.0469C400.184 10.6172 400.129 11.3086 400.129 12.1211V14.9922C400.129 15.7734 400.188 16.4414 400.305 16.9961C400.422 17.5508 400.598 18.0039 400.832 18.3555C401.066 18.707 401.352 18.9688 401.688 19.1406C402.031 19.3047 402.426 19.3867 402.871 19.3867C403.309 19.3867 403.695 19.3047 404.031 19.1406C404.375 18.9688 404.66 18.707 404.887 18.3555C405.113 18.0039 405.285 17.5508 405.402 16.9961C405.52 16.4414 405.578 15.7734 405.578 14.9922ZM401.242 3.97656L403.539 0.355469H407.23L403.984 3.97656H401.242ZM413.5 4.9375L416.102 12.625L418.68 4.9375H422.418L417.824 15.8008V22H414.367V15.8008L409.773 4.9375H413.5ZM428.441 7.98438L424.773 22H421.152L426.484 4.9375H428.746L428.441 7.98438ZM431.336 22L427.645 7.98438L427.305 4.9375H429.602L434.98 22H431.336ZM431.465 15.6367V18.4844H423.766V15.6367H431.465ZM448.539 4.9375V22H445.223L439.867 11.3242V22H436.609V4.9375H439.879L445.281 15.7305V4.9375H448.539ZM463.293 12.1445V14.9922C463.293 16.1953 463.145 17.25 462.848 18.1562C462.559 19.0547 462.145 19.8086 461.605 20.418C461.074 21.0195 460.43 21.4727 459.672 21.7773C458.922 22.082 458.09 22.2344 457.176 22.2344C456.262 22.2344 455.426 22.082 454.668 21.7773C453.918 21.4727 453.27 21.0195 452.723 20.418C452.184 19.8086 451.766 19.0547 451.469 18.1562C451.172 17.25 451.023 16.1953 451.023 14.9922V12.1445C451.023 10.9102 451.168 9.83203 451.457 8.91016C451.746 7.98047 452.164 7.20703 452.711 6.58984C453.258 5.96484 453.906 5.49609 454.656 5.18359C455.406 4.86328 456.238 4.70312 457.152 4.70312C458.066 4.70312 458.898 4.86328 459.648 5.18359C460.398 5.49609 461.047 5.96484 461.594 6.58984C462.141 7.20703 462.559 7.98047 462.848 8.91016C463.145 9.83203 463.293 10.9102 463.293 12.1445ZM459.883 14.9922V12.1211C459.883 11.3086 459.824 10.6172 459.707 10.0469C459.59 9.46875 459.414 8.99609 459.18 8.62891C458.945 8.26172 458.66 7.99219 458.324 7.82031C457.988 7.64844 457.598 7.5625 457.152 7.5625C456.707 7.5625 456.312 7.64844 455.969 7.82031C455.633 7.99219 455.348 8.26172 455.113 8.62891C454.887 8.99609 454.715 9.46875 454.598 10.0469C454.488 10.6172 454.434 11.3086 454.434 12.1211V14.9922C454.434 15.7734 454.492 16.4414 454.609 16.9961C454.727 17.5508 454.902 18.0039 455.137 18.3555C455.371 18.707 455.656 18.9688 455.992 19.1406C456.336 19.3047 456.73 19.3867 457.176 19.3867C457.613 19.3867 458 19.3047 458.336 19.1406C458.68 18.9688 458.965 18.707 459.191 18.3555C459.418 18.0039 459.59 17.5508 459.707 16.9961C459.824 16.4414 459.883 15.7734 459.883 14.9922ZM473.008 17.5117C473.008 17.207 472.98 16.9297 472.926 16.6797C472.871 16.4297 472.754 16.1992 472.574 15.9883C472.402 15.7773 472.148 15.5664 471.812 15.3555C471.484 15.1445 471.055 14.9258 470.523 14.6992C469.891 14.4336 469.277 14.1523 468.684 13.8555C468.09 13.5508 467.555 13.1992 467.078 12.8008C466.602 12.4023 466.223 11.9336 465.941 11.3945C465.668 10.8477 465.531 10.207 465.531 9.47266C465.531 8.75391 465.66 8.10156 465.918 7.51562C466.184 6.92969 466.559 6.42969 467.043 6.01562C467.527 5.59375 468.094 5.26953 468.742 5.04297C469.398 4.81641 470.129 4.70312 470.934 4.70312C472.027 4.70312 472.973 4.92969 473.77 5.38281C474.574 5.83594 475.195 6.45703 475.633 7.24609C476.078 8.03516 476.301 8.94141 476.301 9.96484H472.879C472.879 9.48047 472.809 9.05469 472.668 8.6875C472.535 8.3125 472.32 8.01953 472.023 7.80859C471.727 7.59766 471.344 7.49219 470.875 7.49219C470.438 7.49219 470.074 7.58203 469.785 7.76172C469.504 7.93359 469.293 8.17188 469.152 8.47656C469.02 8.77344 468.953 9.10938 468.953 9.48438C468.953 9.76562 469.02 10.0195 469.152 10.2461C469.293 10.4648 469.484 10.6641 469.727 10.8438C469.969 11.0156 470.254 11.1836 470.582 11.3477C470.918 11.5117 471.285 11.6719 471.684 11.8281C472.457 12.1328 473.141 12.4688 473.734 12.8359C474.328 13.1953 474.824 13.6016 475.223 14.0547C475.621 14.5 475.922 15.0039 476.125 15.5664C476.328 16.1289 476.43 16.7695 476.43 17.4883C476.43 18.1992 476.305 18.8477 476.055 19.4336C475.812 20.0117 475.457 20.5117 474.988 20.9336C474.52 21.3477 473.953 21.668 473.289 21.8945C472.633 22.1211 471.898 22.2344 471.086 22.2344C470.297 22.2344 469.551 22.125 468.848 21.9062C468.145 21.6797 467.523 21.3398 466.984 20.8867C466.453 20.4258 466.035 19.8438 465.73 19.1406C465.426 18.4297 465.273 17.5898 465.273 16.6211H468.707C468.707 17.1367 468.758 17.5781 468.859 17.9453C468.961 18.3047 469.117 18.5938 469.328 18.8125C469.539 19.0234 469.797 19.1836 470.102 19.293C470.414 19.3945 470.77 19.4453 471.168 19.4453C471.621 19.4453 471.98 19.3594 472.246 19.1875C472.52 19.0156 472.715 18.7852 472.832 18.4961C472.949 18.207 473.008 17.8789 473.008 17.5117Z" fill="black"/>
<path d="M172.73 16.3164H176.141C176.094 17.5977 175.836 18.6797 175.367 19.5625C174.898 20.4375 174.23 21.1016 173.363 21.5547C172.504 22.0078 171.465 22.2344 170.246 22.2344C169.301 22.2344 168.461 22.0781 167.727 21.7656C166.992 21.4453 166.367 20.9766 165.852 20.3594C165.336 19.7422 164.945 18.9805 164.68 18.0742C164.422 17.1602 164.293 16.1094 164.293 14.9219V12.0273C164.293 10.8398 164.43 9.78906 164.703 8.875C164.984 7.96094 165.383 7.19531 165.898 6.57812C166.422 5.95313 167.051 5.48438 167.785 5.17188C168.527 4.85156 169.363 4.69141 170.293 4.69141C171.535 4.69141 172.574 4.92578 173.41 5.39453C174.246 5.86328 174.891 6.54687 175.344 7.44531C175.805 8.33594 176.082 9.42578 176.176 10.7148H172.742C172.727 9.90234 172.637 9.26562 172.473 8.80469C172.316 8.33594 172.066 8.00781 171.723 7.82031C171.379 7.625 170.902 7.52734 170.293 7.52734C169.84 7.52734 169.449 7.60938 169.121 7.77344C168.793 7.92969 168.523 8.18359 168.312 8.53516C168.102 8.88672 167.945 9.34766 167.844 9.91797C167.75 10.4883 167.703 11.1836 167.703 12.0039V14.9219C167.703 15.7266 167.746 16.4141 167.832 16.9844C167.918 17.5469 168.055 18.0078 168.242 18.3672C168.43 18.7266 168.684 18.9883 169.004 19.1523C169.332 19.3164 169.746 19.3984 170.246 19.3984C170.824 19.3984 171.289 19.3125 171.641 19.1406C172 18.9688 172.266 18.6602 172.438 18.2148C172.609 17.7695 172.707 17.1367 172.73 16.3164ZM190.273 12.1445V14.9922C190.273 16.1953 190.125 17.25 189.828 18.1562C189.539 19.0547 189.125 19.8086 188.586 20.418C188.055 21.0195 187.41 21.4727 186.652 21.7773C185.902 22.082 185.07 22.2344 184.156 22.2344C183.242 22.2344 182.406 22.082 181.648 21.7773C180.898 21.4727 180.25 21.0195 179.703 20.418C179.164 19.8086 178.746 19.0547 178.449 18.1562C178.152 17.25 178.004 16.1953 178.004 14.9922V12.1445C178.004 10.9102 178.148 9.83203 178.438 8.91016C178.727 7.98047 179.145 7.20703 179.691 6.58984C180.238 5.96484 180.887 5.49609 181.637 5.18359C182.387 4.86328 183.219 4.70312 184.133 4.70312C185.047 4.70312 185.879 4.86328 186.629 5.18359C187.379 5.49609 188.027 5.96484 188.574 6.58984C189.121 7.20703 189.539 7.98047 189.828 8.91016C190.125 9.83203 190.273 10.9102 190.273 12.1445ZM186.863 14.9922V12.1211C186.863 11.3086 186.805 10.6172 186.688 10.0469C186.57 9.46875 186.395 8.99609 186.16 8.62891C185.926 8.26172 185.641 7.99219 185.305 7.82031C184.969 7.64844 184.578 7.5625 184.133 7.5625C183.688 7.5625 183.293 7.64844 182.949 7.82031C182.613 7.99219 182.328 8.26172 182.094 8.62891C181.867 8.99609 181.695 9.46875 181.578 10.0469C181.469 10.6172 181.414 11.3086 181.414 12.1211V14.9922C181.414 15.7734 181.473 16.4414 181.59 16.9961C181.707 17.5508 181.883 18.0039 182.117 18.3555C182.352 18.707 182.637 18.9688 182.973 19.1406C183.316 19.3047 183.711 19.3867 184.156 19.3867C184.594 19.3867 184.98 19.3047 185.316 19.1406C185.66 18.9688 185.945 18.707 186.172 18.3555C186.398 18.0039 186.57 17.5508 186.688 16.9961C186.805 16.4414 186.863 15.7734 186.863 14.9922ZM182.527 3.97656L184.824 0.355469H188.516L185.27 3.97656H182.527ZM193.988 4.9375H197L200.48 16.6094L203.949 4.9375H206.609L201.758 22H199.191L193.988 4.9375ZM192.77 4.9375H195.641L196.086 16.1875V22H192.77V4.9375ZM205.297 4.9375H208.18V22H204.875V16.1875L205.297 4.9375ZM222.969 12.1445V14.9922C222.969 16.1953 222.82 17.25 222.523 18.1562C222.234 19.0547 221.82 19.8086 221.281 20.418C220.75 21.0195 220.105 21.4727 219.348 21.7773C218.598 22.082 217.766 22.2344 216.852 22.2344C215.938 22.2344 215.102 22.082 214.344 21.7773C213.594 21.4727 212.945 21.0195 212.398 20.418C211.859 19.8086 211.441 19.0547 211.145 18.1562C210.848 17.25 210.699 16.1953 210.699 14.9922V12.1445C210.699 10.9102 210.844 9.83203 211.133 8.91016C211.422 7.98047 211.84 7.20703 212.387 6.58984C212.934 5.96484 213.582 5.49609 214.332 5.18359C215.082 4.86328 215.914 4.70312 216.828 4.70312C217.742 4.70312 218.574 4.86328 219.324 5.18359C220.074 5.49609 220.723 5.96484 221.27 6.58984C221.816 7.20703 222.234 7.98047 222.523 8.91016C222.82 9.83203 222.969 10.9102 222.969 12.1445ZM219.559 14.9922V12.1211C219.559 11.3086 219.5 10.6172 219.383 10.0469C219.266 9.46875 219.09 8.99609 218.855 8.62891C218.621 8.26172 218.336 7.99219 218 7.82031C217.664 7.64844 217.273 7.5625 216.828 7.5625C216.383 7.5625 215.988 7.64844 215.645 7.82031C215.309 7.99219 215.023 8.26172 214.789 8.62891C214.562 8.99609 214.391 9.46875 214.273 10.0469C214.164 10.6172 214.109 11.3086 214.109 12.1211V14.9922C214.109 15.7734 214.168 16.4414 214.285 16.9961C214.402 17.5508 214.578 18.0039 214.812 18.3555C215.047 18.707 215.332 18.9688 215.668 19.1406C216.012 19.3047 216.406 19.3867 216.852 19.3867C217.289 19.3867 217.676 19.3047 218.012 19.1406C218.355 18.9688 218.641 18.707 218.867 18.3555C219.094 18.0039 219.266 17.5508 219.383 16.9961C219.5 16.4414 219.559 15.7734 219.559 14.9922ZM236.609 16.7383V4.9375H240.031V16.7383C240.031 17.8789 239.812 18.8633 239.375 19.6914C238.945 20.5117 238.359 21.1406 237.617 21.5781C236.875 22.0156 236.039 22.2344 235.109 22.2344C234.156 22.2344 233.305 22.0469 232.555 21.6719C231.812 21.2891 231.227 20.707 230.797 19.9258C230.367 19.1445 230.152 18.1562 230.152 16.9609H233.598C233.598 17.5703 233.66 18.0508 233.785 18.4023C233.91 18.7539 234.086 19.0078 234.312 19.1641C234.547 19.3203 234.812 19.3984 235.109 19.3984C235.43 19.3984 235.699 19.293 235.918 19.082C236.145 18.8711 236.316 18.5703 236.434 18.1797C236.551 17.7812 236.609 17.3008 236.609 16.7383ZM250.426 4.9375H253.848V16.6562C253.848 17.9688 253.605 19.0391 253.121 19.8672C252.645 20.6875 251.984 21.2891 251.141 21.6719C250.297 22.0469 249.332 22.2344 248.246 22.2344C247.152 22.2344 246.18 22.0469 245.328 21.6719C244.477 21.2891 243.812 20.6875 243.336 19.8672C242.867 19.0391 242.633 17.9688 242.633 16.6562V4.9375H246.055V16.6562C246.055 17.3984 246.137 17.9688 246.301 18.3672C246.473 18.7656 246.719 19.0391 247.039 19.1875C247.367 19.3281 247.77 19.3984 248.246 19.3984C248.73 19.3984 249.129 19.3281 249.441 19.1875C249.762 19.0391 250.004 18.7656 250.168 18.3672C250.34 17.9688 250.426 17.3984 250.426 16.6562V4.9375ZM268.062 13.0352V20.0664C267.82 20.3242 267.465 20.625 266.996 20.9688C266.535 21.3047 265.93 21.6016 265.18 21.8594C264.438 22.1094 263.531 22.2344 262.461 22.2344C261.516 22.2344 260.656 22.0859 259.883 21.7891C259.117 21.4922 258.457 21.043 257.902 20.4414C257.355 19.832 256.938 19.0742 256.648 18.168C256.359 17.2539 256.215 16.1719 256.215 14.9219V12.0156C256.215 10.7812 256.352 9.70703 256.625 8.79297C256.906 7.87109 257.312 7.10547 257.844 6.49609C258.375 5.88672 259.008 5.43359 259.742 5.13672C260.484 4.83984 261.32 4.69141 262.25 4.69141C263.531 4.69141 264.582 4.90625 265.402 5.33594C266.23 5.76563 266.855 6.40234 267.277 7.24609C267.707 8.08984 267.965 9.125 268.051 10.3516H264.734C264.68 9.63281 264.559 9.07031 264.371 8.66406C264.191 8.25781 263.938 7.96875 263.609 7.79688C263.281 7.61719 262.855 7.52734 262.332 7.52734C261.879 7.52734 261.484 7.60938 261.148 7.77344C260.812 7.92969 260.531 8.1875 260.305 8.54688C260.078 8.90625 259.91 9.36719 259.801 9.92969C259.691 10.4922 259.637 11.1797 259.637 11.9922V14.9219C259.637 15.7266 259.699 16.4141 259.824 16.9844C259.949 17.5547 260.133 18.0195 260.375 18.3789C260.625 18.7383 260.938 19 261.312 19.1641C261.695 19.3203 262.145 19.3984 262.66 19.3984C263.074 19.3984 263.406 19.3555 263.656 19.2695C263.906 19.1836 264.105 19.0938 264.254 19C264.41 18.8984 264.539 18.8203 264.641 18.7656V15.625H262.191V13.0352H268.062ZM276.711 7.98438L273.043 22H269.422L274.754 4.9375H277.016L276.711 7.98438ZM279.605 22L275.914 7.98438L275.574 4.9375H277.871L283.25 22H279.605ZM279.734 15.6367V18.4844H272.035V15.6367H279.734ZM284.891 4.9375H290.363C291.504 4.9375 292.477 5.13281 293.281 5.52344C294.086 5.91406 294.703 6.49219 295.133 7.25781C295.562 8.02344 295.777 8.96875 295.777 10.0938C295.777 11.0156 295.652 11.8047 295.402 12.4609C295.152 13.1094 294.797 13.6523 294.336 14.0898C293.875 14.5195 293.324 14.8633 292.684 15.1211L291.641 15.7422H287.199L287.188 12.8945H290.27C290.738 12.8945 291.125 12.793 291.43 12.5898C291.742 12.3789 291.973 12.0859 292.121 11.7109C292.277 11.3281 292.355 10.8828 292.355 10.375C292.355 9.83594 292.285 9.375 292.145 8.99219C292.012 8.60156 291.797 8.30469 291.5 8.10156C291.211 7.89062 290.832 7.78516 290.363 7.78516H288.324V22H284.891V4.9375ZM292.637 22L289.508 14.3945L293.105 14.3828L296.305 21.8359V22H292.637Z" fill="black"/>
<line x1="2" y1="37" x2="732" y2="37.0001" stroke="#A4A4A4" stroke-width="2"/>
<path d="M9.77344 4.9375V22H6.36328V4.9375H9.77344ZM24.6328 4.9375V22H21.3164L15.9609 11.3242V22H12.7031V4.9375H15.9727L21.375 15.7305V4.9375H24.6328ZM30.9609 4.9375V22H27.5508V4.9375H30.9609ZM42.0234 16.3164H45.4336C45.3867 17.5977 45.1289 18.6797 44.6602 19.5625C44.1914 20.4375 43.5234 21.1016 42.6562 21.5547C41.7969 22.0078 40.7578 22.2344 39.5391 22.2344C38.5938 22.2344 37.7539 22.0781 37.0195 21.7656C36.2852 21.4453 35.6602 20.9766 35.1445 20.3594C34.6289 19.7422 34.2383 18.9805 33.9727 18.0742C33.7148 17.1602 33.5859 16.1094 33.5859 14.9219V12.0273C33.5859 10.8398 33.7227 9.78906 33.9961 8.875C34.2773 7.96094 34.6758 7.19531 35.1914 6.57812C35.7148 5.95313 36.3438 5.48438 37.0781 5.17188C37.8203 4.85156 38.6562 4.69141 39.5859 4.69141C40.8281 4.69141 41.8672 4.92578 42.7031 5.39453C43.5391 5.86328 44.1836 6.54687 44.6367 7.44531C45.0977 8.33594 45.375 9.42578 45.4688 10.7148H42.0352C42.0195 9.90234 41.9297 9.26562 41.7656 8.80469C41.6094 8.33594 41.3594 8.00781 41.0156 7.82031C40.6719 7.625 40.1953 7.52734 39.5859 7.52734C39.1328 7.52734 38.7422 7.60938 38.4141 7.77344C38.0859 7.92969 37.8164 8.18359 37.6055 8.53516C37.3945 8.88672 37.2383 9.34766 37.1367 9.91797C37.043 10.4883 36.9961 11.1836 36.9961 12.0039V14.9219C36.9961 15.7266 37.0391 16.4141 37.125 16.9844C37.2109 17.5469 37.3477 18.0078 37.5352 18.3672C37.7227 18.7266 37.9766 18.9883 38.2969 19.1523C38.625 19.3164 39.0391 19.3984 39.5391 19.3984C40.1172 19.3984 40.582 19.3125 40.9336 19.1406C41.293 18.9688 41.5586 18.6602 41.7305 18.2148C41.9023 17.7695 42 17.1367 42.0234 16.3164ZM51.1406 4.9375V22H47.7305V4.9375H51.1406ZM66.0586 12.1445V14.9922C66.0586 16.1953 65.9102 17.25 65.6133 18.1562C65.3242 19.0547 64.9102 19.8086 64.3711 20.418C63.8398 21.0195 63.1953 21.4727 62.4375 21.7773C61.6875 22.082 60.8555 22.2344 59.9414 22.2344C59.0273 22.2344 58.1914 22.082 57.4336 21.7773C56.6836 21.4727 56.0352 21.0195 55.4883 20.418C54.9492 19.8086 54.5312 19.0547 54.2344 18.1562C53.9375 17.25 53.7891 16.1953 53.7891 14.9922V12.1445C53.7891 10.9102 53.9336 9.83203 54.2227 8.91016C54.5117 7.98047 54.9297 7.20703 55.4766 6.58984C56.0234 5.96484 56.6719 5.49609 57.4219 5.18359C58.1719 4.86328 59.0039 4.70312 59.918 4.70312C60.832 4.70312 61.6641 4.86328 62.4141 5.18359C63.1641 5.49609 63.8125 5.96484 64.3594 6.58984C64.9062 7.20703 65.3242 7.98047 65.6133 8.91016C65.9102 9.83203 66.0586 10.9102 66.0586 12.1445ZM62.6484 14.9922V12.1211C62.6484 11.3086 62.5898 10.6172 62.4727 10.0469C62.3555 9.46875 62.1797 8.99609 61.9453 8.62891C61.7109 8.26172 61.4258 7.99219 61.0898 7.82031C60.7539 7.64844 60.3633 7.5625 59.918 7.5625C59.4727 7.5625 59.0781 7.64844 58.7344 7.82031C58.3984 7.99219 58.1133 8.26172 57.8789 8.62891C57.6523 8.99609 57.4805 9.46875 57.3633 10.0469C57.2539 10.6172 57.1992 11.3086 57.1992 12.1211V14.9922C57.1992 15.7734 57.2578 16.4414 57.375 16.9961C57.4922 17.5508 57.668 18.0039 57.9023 18.3555C58.1367 18.707 58.4219 18.9688 58.7578 19.1406C59.1016 19.3047 59.4961 19.3867 59.9414 19.3867C60.3789 19.3867 60.7656 19.3047 61.1016 19.1406C61.4453 18.9688 61.7305 18.707 61.957 18.3555C62.1836 18.0039 62.3555 17.5508 62.4727 16.9961C62.5898 16.4414 62.6484 15.7734 62.6484 14.9922Z" fill="black"/>
<line x1="2" y1="37" x2="69" y2="37" stroke="black" stroke-width="2"/>
</svg>
