<svg width="72" height="38" viewBox="0 0 72 38" fill="none" xmlns="http://www.w3.org/2000/svg">
<path d="M9.79688 22H6.35156V4.9375H9.79688V22ZM24.6211 22H21.1758L16.1367 10.8086V22H12.6914V4.9375H16.1367L21.1875 16.1406V4.9375H24.6211V22ZM30.9844 22H27.5391V4.9375H30.9844V22ZM45.4453 16.3164C45.3594 18.2617 44.8125 19.7344 43.8047 20.7344C42.7969 21.7344 41.375 22.2344 39.5391 22.2344C37.6094 22.2344 36.1289 21.6016 35.0977 20.3359C34.0742 19.0625 33.5625 17.25 33.5625 14.8984V12.0273C33.5625 9.68359 34.0938 7.87891 35.1562 6.61328C36.2188 5.33984 37.6953 4.70312 39.5859 4.70312C41.4453 4.70312 42.8555 5.22266 43.8164 6.26172C44.7852 7.30078 45.3359 8.79297 45.4688 10.7383H42.0117C41.9805 9.53516 41.793 8.70703 41.4492 8.25391C41.1133 7.79297 40.4922 7.5625 39.5859 7.5625C38.6641 7.5625 38.0117 7.88672 37.6289 8.53516C37.2461 9.17578 37.043 10.2344 37.0195 11.7109V14.9336C37.0195 16.6289 37.207 17.793 37.582 18.4258C37.9648 19.0586 38.6172 19.375 39.5391 19.375C40.4453 19.375 41.0703 19.1562 41.4141 18.7188C41.7578 18.2734 41.9531 17.4727 42 16.3164H45.4453ZM51.1641 22H47.7188V4.9375H51.1641V22ZM66.0703 15.0039C66.0703 17.293 65.5273 19.0703 64.4414 20.3359C63.3633 21.6016 61.8633 22.2344 59.9414 22.2344C58.0273 22.2344 56.5234 21.6094 55.4297 20.3594C54.3359 19.1016 53.7812 17.3438 53.7656 15.0859V12.168C53.7656 9.82422 54.3086 7.99609 55.3945 6.68359C56.4805 5.36328 57.9883 4.70312 59.918 4.70312C61.8164 4.70312 63.3125 5.35156 64.4062 6.64844C65.5 7.9375 66.0547 9.75 66.0703 12.0859V15.0039ZM62.6133 12.1445C62.6133 10.6055 62.3945 9.46094 61.957 8.71094C61.5195 7.96094 60.8398 7.58594 59.918 7.58594C59.0039 7.58594 58.3281 7.94922 57.8906 8.67578C57.4531 9.39453 57.2266 10.4922 57.2109 11.9688V15.0039C57.2109 16.4961 57.4336 17.5977 57.8789 18.3086C58.3242 19.0117 59.0117 19.3633 59.9414 19.3633C60.8398 19.3633 61.5078 19.0195 61.9453 18.332C62.3828 17.6367 62.6055 16.5625 62.6133 15.1094V12.1445Z" fill="black"/>
<line x1="2" y1="37" x2="69" y2="37" stroke="black" stroke-width="2"/>
</svg>
